<?xml version="1.0" encoding="utf-8"?>
<!-- Generator: Adobe Illustrator 26.0.1, SVG Export Plug-In . SVG Version: 6.00 Build 0)  -->
<svg version="1.1" id="圖層_1" xmlns="http://www.w3.org/2000/svg" xmlns:xlink="http://www.w3.org/1999/xlink" x="0px" y="0px"
	 viewBox="0 0 180 22.8" style="enable-background:new 0 0 180 22.8;" xml:space="preserve">
<style type="text/css">
	.st0{fill:#F5F5F5;}
</style>
<g>
	<g>
		<g>
			<path class="st0" d="M89.3,3c1.4,0,2.6,0.1,3.6,0.4s1.8,0.7,2.4,1.2s1.1,1.1,1.4,1.8s0.5,1.4,0.5,2.1c0,0.6-0.1,1.2-0.3,1.7
				s-0.5,1.1-0.9,1.6c-0.4,0.5-0.9,0.9-1.6,1.3S92.9,13.8,92,14l5.7,7.3H93l-5.6-7.1H81c-0.4,0-0.6,0.2-0.6,0.5v6.7h-4.3v-7.3
				c0-1,0.3-1.8,0.9-2.2c0.6-0.5,1.6-0.7,2.9-0.7h9.5c0.6,0,1.1-0.1,1.6-0.2c0.4-0.1,0.8-0.3,1.1-0.6c0.3-0.2,0.5-0.5,0.6-0.8
				c0.1-0.3,0.2-0.6,0.2-1c0-0.7-0.3-1.2-0.8-1.7s-1.4-0.7-2.6-0.7H76.1V3H89.3z"/>
			<path class="st0" d="M122.5,3v3.2h-12.3c-1.3,0-2.2,0.2-2.8,0.6c-0.6,0.4-0.9,1-0.9,1.7c0,1.5,1.2,2.2,3.7,2.2h12v2.9h-12.1
				c-2.5,0-3.7,0.7-3.7,2.2c0,0.7,0.3,1.3,0.9,1.7s1.5,0.6,2.8,0.6h12.4v3.3h-12.4c-1.5,0-2.7-0.1-3.7-0.4s-1.9-0.6-2.5-1
				c-0.7-0.4-1.1-1-1.5-1.6c-0.3-0.6-0.5-1.3-0.5-2c0-1.1,0.3-1.9,0.9-2.6s1.5-1.2,2.6-1.6c-2.3-0.7-3.4-2.1-3.4-4.1
				c0-0.7,0.2-1.4,0.5-2s0.8-1.1,1.5-1.6c0.7-0.4,1.5-0.8,2.5-1s2.3-0.4,3.7-0.4L122.5,3L122.5,3z"/>
			<path class="st0" d="M131.4,21.4h-4.7l8.6-16.3c0.5-0.9,1.1-1.5,1.9-1.8c0.8-0.4,1.9-0.5,3.2-0.5s2.3,0.2,3.2,0.5
				c0.8,0.4,1.5,1,1.9,1.8l8.3,16.3H149l-7.4-14.8C141.4,6.2,141,6,140.4,6c-0.6,0-1,0.2-1.2,0.6L131.4,21.4z"/>
			<path class="st0" d="M169,3c3.6,0,6.3,0.8,8.2,2.3s2.8,3.8,2.8,6.9s-0.9,5.4-2.8,6.9c-1.9,1.5-4.6,2.3-8.2,2.3h-8.6
				c-1.4,0-2-0.5-2-1.5V4.5c0-1,0.7-1.5,2-1.5C160.4,3,169,3,169,3z M162.6,17.8c0,0.2,0.2,0.3,0.5,0.3h5.9c2.4,0,4.1-0.5,5.2-1.4
				c1.1-0.9,1.6-2.5,1.6-4.6s-0.5-3.6-1.6-4.6c-1.1-0.9-2.8-1.4-5.2-1.4h-5.9c-0.3,0-0.5,0.1-0.5,0.3V17.8z"/>
			<g>
				<rect x="65" y="3" class="st0" width="4.3" height="3.7"/>
				<rect x="65" y="11.3" class="st0" width="4.3" height="10.1"/>
			</g>
		</g>
	</g>
	<g>
		<path class="st0" d="M8.5,5.2c-1,6.6-2.8,11.7-6.5,15.3c-0.4-0.5-1.4-1.4-2-1.9c3.5-3,5.1-7.6,6-13.4H0.8V2.9h5.5
			C6.4,2,6.5,1,6.6,0l2.6,0.2C9.1,1.1,9,2.1,8.9,2.9H23v2.2H8.5V5.2z M16.4,6.2c-0.1,2.2-0.2,4.3-0.5,6.3c1.5,3.6,4.2,6.7,7.7,8.3
			c-0.5,0.4-1.2,1.2-1.6,1.8c-2.9-1.5-5.3-3.9-6.9-6.9c-1.1,3.1-3.3,5.5-7.6,7.1c-0.3-0.6-0.9-1.4-1.5-1.9c7.4-2.5,7.7-7.8,7.9-14.7
			C13.9,6.2,16.4,6.2,16.4,6.2z M8.1,14.1c0.8-1.3,1.4-3.4,1.7-5.1l2,0.7c-0.4,1.7-0.9,3.8-1.7,5.2L8.1,14.1z M17.5,13.4
			c0.8-1.2,1.9-3.2,2.4-4.6L22,9.7c-0.8,1.6-1.8,3.4-2.7,4.6L17.5,13.4z"/>
		<path class="st0" d="M31.1,22.5l-2.3-0.8c0.4-0.3,0.9-0.9,1.5-1.7c0.6-0.7,1-1.4,1.2-1.9l2.3,0.4c-0.2,0.5-0.7,1.2-1.4,2.2
			C31.8,21.7,31.3,22.3,31.1,22.5z M29.3,6l-0.1-1.8c0.4,0,0.8,0,1.3,0c1-1.4,1.8-2.6,2.2-3.6L34.9,1c-0.3,0.7-1,1.8-2.1,3.1
			C34,4,35.5,4,37.3,3.9c-0.4-0.5-0.7-1-1-1.3l1.9-0.9c0.4,0.4,0.9,1.1,1.4,1.9c0.7,1.1,1.1,1.7,1.3,2l-2,0.7
			c-0.2-0.3-0.4-0.6-0.5-0.8C35.8,5.5,32.8,5.8,29.3,6z M37.3,13.6h-5V17H30V6.9h9.5v8.5c0,0.4-0.2,0.8-0.5,1.1
			c-0.4,0.3-0.9,0.5-1.6,0.5h-1.9l-0.2-1.9h1.3c0.4,0,0.7-0.1,0.7-0.4V13.6z M37.3,9.6V8.4h-5v1.3h5V9.6z M32.3,12.2h5v-1.3h-5V12.2
			z M36.9,22.3c-0.4-1.2-0.9-2.5-1.4-3.8l2.2-0.4c0.1,0.1,0.4,0.8,0.9,1.9s0.7,1.8,0.7,1.9L36.9,22.3z M43,22.1
			c-0.5-1.2-1.1-2.4-1.8-3.8l2.2-0.5c0.1,0.1,0.4,0.8,1,1.9s0.9,1.7,1,1.9L43,22.1z M49.4,16.7c-2.5,0.1-4.5,0.1-5.9,0
			c-0.6-0.1-1.2-0.3-1.5-0.7c-0.4-0.4-0.6-0.8-0.6-1.3V9.6h2.4v1.3c3.1-0.5,5.3-1.1,6.6-1.7l0.9,1.8c-1.4,0.5-3.9,1-7.6,1.6v1.5
			c0,0.4,0.3,0.6,0.8,0.7c2.1,0.2,3.6,0.2,4.5,0c0.4-0.1,0.7-0.3,0.8-0.6c0.1-0.2,0.1-0.1,0.2-1.3l2,0.2v1.7c0,0.5-0.2,0.9-0.7,1.3
			C50.8,16.4,50.2,16.6,49.4,16.7z M49.1,8.2c-2.2,0.1-4.1,0.1-5.6,0c-1.3-0.1-2-0.7-2-1.9V0.8h2.3v2c2.8-0.5,4.9-1,6.3-1.6l1,1.6
			c-1.6,0.5-4,1.1-7.3,1.7v1.2c0,0.4,0.3,0.6,0.8,0.7c1.3,0.2,2.7,0.2,4.1,0c0.5,0,0.8-0.3,0.9-0.6c0.1-0.4,0.1-0.2,0.1-1L51.6,5
			v1.4c0,0.5-0.2,0.9-0.7,1.3C50.5,7.9,49.9,8.1,49.1,8.2z M47.6,18.6l2.2-0.5c0,0,0.4,0.5,1.1,1.5c0.5,0.7,1.3,1.9,1.5,2.2
			l-2.7,0.4c0,0-0.4-0.8-1-1.9C48.2,19.5,47.6,18.6,47.6,18.6z"/>
	</g>
</g>
</svg>
