<svg id="圖層_1" data-name="圖層 1" xmlns="http://www.w3.org/2000/svg" viewBox="0 0 566.93 136.06"><defs><style>.cls-1{fill:#f5f5f5;}</style></defs><path class="cls-1" d="M281.49,43.22A36.49,36.49,0,0,1,292,44.55a21.9,21.9,0,0,1,7.25,3.54,13.77,13.77,0,0,1,4.19,5.19,15.06,15.06,0,0,1,1.34,6.21,15.93,15.93,0,0,1-.86,5.11,15.13,15.13,0,0,1-2.68,4.75,17.34,17.34,0,0,1-4.73,3.91,23.94,23.94,0,0,1-7.08,2.57l16.85,21.75H292.23l-16.54-21H256.8c-1.22,0-1.83.45-1.83,1.37V97.58H242.3V76.07q0-4.59,2.68-6.6t8.7-2h28.24a14.67,14.67,0,0,0,4.62-.65,8.67,8.67,0,0,0,3.11-1.69,6.75,6.75,0,0,0,1.77-2.41,7,7,0,0,0,.59-2.82,6.51,6.51,0,0,0-2.41-5q-2.42-2.14-7.68-2.14H242.19v-9.5Z"/><path class="cls-1" d="M379.63,43.22v9.5H343.34q-5.8,0-8.38,1.85a5.85,5.85,0,0,0-2.58,5q0,6.43,11.06,6.44h35.65v8.61h-36q-11.06,0-11.06,6.61a5.74,5.74,0,0,0,2.69,5q2.69,1.81,8.26,1.81h36.72v9.51H343a46.52,46.52,0,0,1-11-1.13,23.78,23.78,0,0,1-7.52-3.1,12.11,12.11,0,0,1-4.29-4.71,13.14,13.14,0,0,1-1.34-5.88A11.44,11.44,0,0,1,321.54,75a16.63,16.63,0,0,1,7.73-4.72q-10.2-3.13-10.2-12.23a12.8,12.8,0,0,1,1.4-6,12.43,12.43,0,0,1,4.34-4.71,23,23,0,0,1,7.52-3.06,47.82,47.82,0,0,1,11-1.09Z"/><path class="cls-1" d="M406,97.58h-14l25.45-48.32a11.51,11.51,0,0,1,5.74-5.44,24.52,24.52,0,0,1,9.51-1.57,24.15,24.15,0,0,1,9.39,1.57,11,11,0,0,1,5.64,5.44l24.48,48.32H458.22l-22-43.73A3.61,3.61,0,0,0,432.67,52,3.85,3.85,0,0,0,429,53.85Z"/><path class="cls-1" d="M517.28,43.22q16,0,24.32,6.68t8.32,20.54q0,13.77-8.32,20.45t-24.32,6.69H491.72q-6,0-6-4.43V47.65q0-4.42,6-4.43Zm-18.9,43.89c0,.64.47,1,1.4,1h17.5q10.51,0,15.25-4.18t4.72-13.53q0-9.35-4.67-13.49t-15.3-4.15h-17.5c-.93,0-1.4.32-1.4,1Z"/><rect class="cls-1" x="209.55" y="43.22" width="12.67" height="11.08"/><rect class="cls-1" x="209.55" y="67.63" width="12.67" height="29.95"/><path class="cls-1" d="M42.19,49.55C39.34,69,34,84.31,22.86,94.85A41.35,41.35,0,0,0,17,89.36c10.32-8.85,15.17-22.61,17.63-39.81H19.16V43H35.49c.31-2.78.54-5.64.77-8.64l7.62.52c-.23,2.78-.54,5.48-.85,8.12H84.85v6.58Zm23.25,3.22a138.69,138.69,0,0,1-1.62,18.66c4.39,10.76,12.48,19.91,22.8,24.44A23.17,23.17,0,0,0,82,101.29C73.37,97,66.44,89.73,61.44,80.73c-3.39,9.14-9.86,16.39-22.49,21a19.76,19.76,0,0,0-4.31-5.49C56.51,88.7,57.43,73,58.13,52.77ZM41,76c2.24-4,4.16-10.17,5.16-15l5.86,2c-1.08,4.91-2.7,11.35-4.93,15.3Zm27.73-2.12a75.55,75.55,0,0,0,7.16-13.61L82,63a124,124,0,0,1-7.86,13.54Z"/><path class="cls-1" d="M109,100.85l-6.7-2.45a28.77,28.77,0,0,0,4.54-4.89,48.91,48.91,0,0,0,3.7-5.55l6.85,1.29a41.54,41.54,0,0,1-4,6.38A28.92,28.92,0,0,1,109,100.85ZM103.67,51.9l-.38-5.34c1.08,0,2.33,0,3.77-.07A59.65,59.65,0,0,0,113.61,36l6.62,1.1a48.31,48.31,0,0,1-6.16,9.22l13.4-.73q-1.69-2.34-3.08-3.95L130,39a40.48,40.48,0,0,1,4.16,5.56q3.17,4.83,3.85,5.78l-5.93,2.2q-.84-1.32-1.62-2.49Q119.46,51,103.67,51.9ZM127.4,74.47H112.68V84.68H106V54.78h28V79.85a4.15,4.15,0,0,1-1.62,3.22,7,7,0,0,1-4.62,1.54h-5.65l-.54-5.49h3.88c1.28,0,1.93-.44,1.93-1.32Zm0-11.64V59.1H112.68v3.73Zm-14.72,7.61H127.4V66.71H112.68Zm13.64,30q-1.86-5.28-4.09-11.28L128.86,88a45.59,45.59,0,0,1,2.54,5.61,50.94,50.94,0,0,1,2.16,5.67Zm17.86-.58Q141.8,94.6,139,88.61l6.54-1.35c.26.43,1.26,2.27,3,5.54s2.72,5.11,2.92,5.54Zm18.95-16.24a115.94,115.94,0,0,1-17.33-.07,7.7,7.7,0,0,1-4.54-2,5.37,5.37,0,0,1-1.7-4V62.44h7.09v3.73q13.54-2.41,19.64-4.9l2.77,5.41q-6.09,2.13-22.41,4.68v4.39c0,1.13.8,1.83,2.38,2.13,6.12.58,10.58.56,13.41-.08A2.55,2.55,0,0,0,164.67,76c.15-.48.33-.4.54-3.87l5.78.66v5a4.62,4.62,0,0,1-2.08,3.81A9.85,9.85,0,0,1,163.13,83.58Zm-.85-25.09a151.36,151.36,0,0,1-16.56-.15q-5.92-.51-5.93-5.49V36.76h6.86v5.78q12.39-2.26,18.71-4.76l2.85,4.83a172.34,172.34,0,0,1-21.56,5V51q0,1.69,2.31,2a52.51,52.51,0,0,0,12.09.07c1.59-.14,2.52-.77,2.77-1.86a7.08,7.08,0,0,0,.39-3l5.7.65V53a4.67,4.67,0,0,1-2,3.77A9.55,9.55,0,0,1,162.28,58.49ZM157.8,89.27l6.59-1.56s1.06,1.42,3.3,4.58c1.55,2.19,3.88,5.69,4.39,6.59l-7.87,1.26s-1.22-2.42-3-5.56C159.72,92,157.8,89.27,157.8,89.27Z"/></svg>