<?xml version="1.0" encoding="utf-8"?>
<!-- Generator: Adobe Illustrator 26.0.1, SVG Export Plug-In . SVG Version: 6.00 Build 0)  -->
<svg version="1.1" xmlns="http://www.w3.org/2000/svg" xmlns:xlink="http://www.w3.org/1999/xlink" x="0px" y="0px"
	 viewBox="0 0 97.8 88" style="enable-background:new 0 0 97.8 88;" xml:space="preserve">
<style type="text/css">
	.st0{fill:#FACAA9;}
	.st1{fill:#4E1106;}
	.st2{fill:#4837AE;}
	.st3{fill:#F5F5F5;}
	.st4{fill:#C80501;}
	.st5{fill:#282B54;}
	.st6{fill:#3A2C8B;}
	.st7{fill:#5A45DA;}
</style>
<g id="body_00000029732932482948674350000011250104042055952031_">
	<path class="st0" d="M28.3,72.7c0,0.1,0,0.1,0.1,0.2c0.5,0.5,0.8,1.1,1,1.7c0.7,1.5,1,3.1,1.2,4.8c0.2,2.4-0.2,4.7-1,7
		c-0.2,0.4-0.4,0.8-0.6,1.2c-0.1,0.1-0.2,0.3-0.1,0.4c-4.5,0-9.1,0-13.6,0c0-0.1,0.1-0.2,0.2-0.3c0.4-0.5,0.9-1.1,1.3-1.6
		c0.1-0.1,0.2-0.2,0.1-0.4c1-1.3,2-2.7,2.9-4.1c0.1-0.1,0.2-0.3,0.2-0.5c0.1-0.7,0.2-1.3,0.2-2c0-0.2,0-0.4-0.1-0.5
		c-1-1.9-1.9-3.8-3-5.6c-1-1.6-1.9-3.2-2.7-4.9c-0.2-0.5-0.4-1-0.6-1.5c-0.2-0.7-0.1-1.3,0.6-1.7c0,0,0,0,0.1-0.1
		c0.2,0,0.3-0.1,0.4-0.1c0.8-0.4,1.5-0.9,2.3-1.3c1.2-0.7,2.4-1.4,3.7-2c0.1-0.1,0.3-0.1,0.3-0.3c0.7-0.3,1.3-0.6,2-1
		c0.2-0.1,0.3-0.1,0.5-0.1c1.2,0.1,2.4,0.2,3.6,0.3c1.6,0.1,3.3,0.2,4.9,0.3c0.4,0,0.8,0.1,1.1,0.1c0.2,0,0.3,0.1,0.2,0.3
		c-0.1,0.2-0.1,0.5-0.2,0.7c-0.3,0.9-0.9,1.4-1.9,1.5c-0.8,0-1.5,0.1-2.3,0.1c-0.2,0-0.5-0.1-0.7-0.1c-0.6-0.2-1.1-0.4-1.7-0.6
		c-0.2-0.1-0.5-0.1-0.7,0c-2.2,0.8-4.5,1.6-6.7,2.4c-0.1,0-0.2,0.1-0.3,0.1c-0.1,0-0.1,0.1-0.1,0.2c0,0.1,0.1,0.1,0.2,0.1
		c0.1,0,0.2-0.1,0.3-0.1c2.2-0.8,4.4-1.5,6.6-2.3c0.2-0.1,0.4-0.1,0.7,0c0.9,0.3,1.7,0.6,2.6,0.9c0.1,0,0.3,0.2,0.4,0
		c0.8,0.4,1.7,0.7,2.5,1.1c0.6,0.3,1.2,0.5,1.8,0.8c0.1,0.1,0.2,0.1,0.2,0.3c-0.3,0.8-1,1.5-2.1,1.4c-1.1-0.1-2.2-0.3-3.3-0.6
		c0.1-0.2-0.1-0.2-0.2-0.3c-0.8-0.3-1.6-0.6-2.4-0.9c-0.2-0.1-0.3,0-0.5,0c-1.5,0.7-3,1.5-4.6,2.2c-0.1,0-0.1,0.1-0.2,0.1
		c0,0-0.1,0.1,0,0.1c0,0,0.1,0.1,0.1,0.1c0.1,0,0.2-0.1,0.2-0.1c1.5-0.7,2.9-1.4,4.4-2.1c0.2-0.1,0.4-0.1,0.6,0
		c0.3,0.1,0.7,0.2,1,0.4c0.4,0.2,0.9,0.3,1.3,0.5c0.1,0.1,0.2,0.1,0.3,0.2c1,0.6,2,1.2,2.9,1.8c0.3,0.2,0.3,0.2,0.1,0.4
		c-0.4,0.5-1,0.9-1.6,1c-0.6,0.1-1.1-0.1-1.7-0.3c-0.9-0.4-1.7-0.8-2.5-1.4c-0.2-0.1-0.3-0.1-0.6,0c-0.6,0.4-1.2,0.7-1.9,1.1
		c-0.1,0.1-0.3,0.1-0.4,0.3c0,0.1,0.1,0.1,0.2,0.1c1.8,0.7,3.4,1.6,4.9,2.8C28.1,72.7,28.2,72.7,28.3,72.7L28.3,72.7z"/>
	<path class="st0" d="M89.4,88c-3.8,0-7.5,0-11.3,0c-0.5-1.5-1-3-1.4-4.5c-0.2-0.6-0.3-1.1-0.3-1.7c0-2.8,0.9-5.2,2.8-7.1
		c1-1.1,2.2-1.9,3.5-2.6c0.3-0.1,0.5-0.3,0.6-0.5c0,0,0.1,0,0.1-0.1l0,0c0,0,0,0,0,0c0,0-0.1,0-0.1,0.1c-0.1,0-0.1,0-0.2,0
		c-0.2,0.1-0.4,0.1-0.6,0c-0.4-0.2-0.8-0.4-1.1-0.6c-0.3-0.2-0.7-0.3-1-0.5c-0.2-0.1-0.2,0-0.3,0.1c-0.4,0.3-0.8,0.6-1.1,0.8
		c-0.7,0.4-1.3,0.9-2.1,1.2c-1,0.4-1.9,0.1-2.7-0.6c-0.2-0.2-0.2-0.2,0-0.4c0.6-0.5,1.2-0.9,1.8-1.4c0.4-0.3,0.9-0.6,1.3-1
		c0,0,0.1,0,0.1-0.1c0,0-0.1,0-0.1,0c-0.2,0-0.3,0.1-0.4,0.1c-0.9,0.3-1.8,0.6-2.8,0.8c-1,0.2-1.8-0.1-2.3-1
		c-0.2-0.3-0.2-0.3,0.1-0.5c1.4-0.7,2.7-1.4,4.1-2.2c0.1,0.1,0.2,0,0.4-0.1c0.9-0.4,1.7-0.7,2.6-1.1c0.2-0.1,0.4-0.1,0.6-0.1
		c1.9,0.5,3.7,0.9,5.6,1.4c0.5,0.1,1,0.2,1.5,0.4c0.1,0,0.2,0,0.2-0.1c0-0.1-0.1-0.1-0.1-0.2c0,0,0,0-0.1,0
		c-2.4-0.6-4.8-1.2-7.1-1.8c-0.2,0-0.3,0-0.5,0c-0.3,0.2-0.7,0.3-1,0.5c-0.4,0.2-0.8,0.4-1.2,0.5c-0.1,0-0.3,0-0.4,0
		c-0.8,0.1-1.6,0.1-2.4,0.1c-0.4,0-0.7-0.1-1-0.4c-0.5-0.4-0.7-1-0.9-1.6c0-0.1,0-0.2,0.1-0.2c0.1,0,0.1,0,0.2,0
		c3.1-0.5,6.2-1,9.3-1.5c0.2,0,0.5,0,0.7,0.1c0.9,0.4,1.8,0.7,2.7,1c0.1,0.1,0.3,0.1,0.4,0.2c-0.1,0.1-0.1,0.2,0,0.3
		c0.1,0,0.2,0.1,0.3,0.1c1.8,0.8,3.7,1.6,5.5,2.4c0.7,0.3,1,0.9,0.9,1.7c-0.1,0.6-0.3,1.1-0.6,1.6c-0.3,0.5-0.6,1.1-1,1.6
		c-1.1,1.9-2.2,3.8-2.9,5.9c-0.3,0.9-0.6,1.8-0.7,2.7c-0.2,1.4-0.1,2.7,0.5,4c0.6,1.3,1.2,2.6,1.9,3.8C89.3,87.7,89.4,87.8,89.4,88z
		 M85,69.7c0-0.1-0.1-0.1-0.2-0.2c-1.8-0.6-3.6-1.3-5.3-1.9c-0.2-0.1-0.3,0-0.5,0.1c-0.4,0.3-0.8,0.6-1.3,1c-0.1,0-0.1,0.1-0.1,0.1
		c0,0,0,0.1,0,0.1c0,0,0.1,0.1,0.1,0c0.1,0,0.2-0.1,0.2-0.2c0.3-0.3,0.7-0.5,1-0.8c0.2-0.2,0.4-0.2,0.7-0.1c1.7,0.6,3.3,1.2,5,1.8
		c0.1,0,0.2,0.1,0.3,0.1C85,69.8,85,69.8,85,69.7z"/>
	<path class="st0" d="M0,88c0-0.1,0-0.2,0.1-0.3c1.4-4.1,2.9-8.2,4.4-12.3c0-0.1,0.1-0.1,0.1-0.2c0.1,0.1,0.3,0.2,0.4,0.3
		c1.2,1,2.4,2.1,3.5,3.1c2.6,2.3,5.1,4.7,7.5,7.2c0.1,0.1,0.2,0.2,0.3,0.3c0,0.1-0.1,0.2-0.2,0.3c-0.3,0.4-0.7,0.8-1,1.2
		c-0.1,0.1-0.2,0.2-0.1,0.4C9.9,88,5,88,0,88z"/>
	<path class="st0" d="M90.1,72.2c0.4,0.6,0.7,1.2,1,1.9c2.3,4.6,4.6,9.2,6.7,13.9c-2.7,0-5.4,0-8.1,0c0-0.2-0.1-0.3-0.2-0.4
		c-0.8-1.4-1.5-2.8-2.1-4.3c-0.5-1.2-0.6-2.5-0.3-3.8C87.6,76.9,88.8,74.6,90.1,72.2z"/>
	<path class="st0" d="M71.8,81c0.5-0.7,1-1.2,1.6-1.8c1.4-1.3,2.8-2.4,4.3-3.6c0.1-0.1,0.2-0.2,0.3-0.1c0,0.1-0.1,0.2-0.2,0.3
		c-0.6,0.8-1,1.7-1.3,2.7c-0.5,1.7-0.6,3.3-0.1,5c0.4,1.4,0.8,2.7,1.2,4.1c0,0.1,0.1,0.2,0.1,0.4c-0.8,0-1.7,0-2.5,0
		c0-0.1-0.1-0.2-0.1-0.3c-0.9-1.8-1.8-3.6-2.7-5.5C72.2,81.8,72.1,81.4,71.8,81z"/>
	<path class="st0" d="M84.9,61.2c0-0.3-0.2-0.5-0.5-0.7c-2-0.9-4-1.8-5.9-2.8c-0.8-0.4-1.2-1-1.2-1.9c0-0.6,0.1-1.1,0.2-1.6
		c0.1-0.3,0.1-0.3,0.4-0.2c1.4,0.6,2.9,1.3,4.3,1.9c0.9,0.4,1.8,0.8,2.6,1.2c0,0,0.1,0,0.1,0c0.7,0.4,1.4,0.7,2.1,0.9
		c0.6,0.2,0.9,0.6,1.2,1.2c0.8,2.1,1.7,4.2,2.6,6.2c0,0.1,0.1,0.2,0.1,0.3c-0.7-0.2-1.4-0.6-2-0.9c-0.8-0.3-1.6-0.7-2.4-1
		c-0.2-0.1-0.4-0.2-0.4-0.5c-0.2-0.5-0.4-1.1-0.6-1.6c0-0.1,0-0.3-0.2-0.3C85,61.4,84.9,61.3,84.9,61.2z"/>
	<path class="st0" d="M14.6,64.4c0.2-0.8,0.5-1.6,0.7-2.5c0.3-0.9,0.5-1.8,0.8-2.7c0.3-0.9,0.6-1.8,0.9-2.7c0.9-2.9,1.8-5.8,2.7-8.7
		c0.1-0.4,0.1-0.4,0.5-0.2c0.2,0.1,0.4,0.3,0.7,0.5c0,0,0,0,0,0.1c0.7,0.7,0.8,1.6,0.6,2.5c-0.2,1.1-0.4,2.2-0.6,3.2
		c0,0.2,0,0.3-0.1,0.5c-0.2,0.7-0.3,1.4-0.5,2.1c-0.1,0.4-0.2,0.9-0.2,1.3c0,0.1-0.1,0.1-0.1,0.2c-0.3,1.2-0.6,2.4-0.9,3.6
		c0,0.2-0.1,0.3-0.3,0.4c-1.1,0.6-2.2,1.2-3.2,1.8C15.3,64,15,64.3,14.6,64.4z"/>
	<g>
		<polygon class="st0" points="82.2,72 82.2,72 82.2,72 		"/>
		<polygon class="st0" points="78.1,75.4 78.1,75.4 78.1,75.4 		"/>
		<polygon class="st0" points="78,75.5 78,75.5 78,75.5 		"/>
	</g>
	<path class="st0" d="M82.4,71.8c0.1,0,0.2,0,0.1,0.1c-0.1,0.1-0.2,0.1-0.3,0.1C82.2,71.9,82.3,71.8,82.4,71.8z"/>
	<path class="st0" d="M82.2,72c0,0-0.1,0.1-0.1,0.1C82.1,72,82.2,72,82.2,72z"/>
	<path class="st0" d="M78.1,75.3c0,0.1,0,0.1-0.1,0.1C78.1,75.4,78.1,75.3,78.1,75.3z"/>
	<path class="st0" d="M78.1,75.4C78.1,75.5,78,75.5,78.1,75.4C78,75.5,78,75.4,78.1,75.4z"/>
	<path class="st0" d="M53.4,36.4C53.4,36.4,53.3,36.4,53.4,36.4c-0.2-0.9-0.7-1.6-1.2-2.2c-0.8-0.9-1.8-1.6-2.9-2.3
		c-0.2-0.1-0.3-0.2-0.5-0.3c0.4-1.2,0.5-2.4,0.5-3.6c0-0.3,0-0.6-0.1-0.9c0-0.2-0.1-0.3-0.2-0.5c-0.8-0.7-1.6-1.3-2.3-2
		c-0.1-0.1-0.1-0.1-0.2-0.2c0,0-0.1-0.1,0-0.2c0,0,0.1-0.1,0.2-0.1c0.1,0.1,0.2,0.1,0.2,0.2c0.7,0.7,1.5,1.3,2.2,2
		c0.3,0.2,0.3,0.2,0.6,0.1c1.1-0.6,2.4-0.9,3.6-1.1c0.9-0.1,1.8-0.1,2.8,0.1c0.7,0.1,1.4,0.4,1.9,0.9c0.9,0.8,1.3,1.8,0.9,3
		c-0.1,0.4-0.3,0.8-0.4,1.2c-0.1,0.3-0.2,0.7-0.3,1c0,0.1-0.1,0.3,0,0.4c-1.3,0.7-2.6,1.5-3.7,2.7C53.9,35.1,53.5,35.7,53.4,36.4z"
		/>
</g>
<g id="圖層_1">
	<g>
		<path class="st1" d="M90.1,72.2c-1.3,2.3-2.5,4.7-3,7.3c-0.3,1.3-0.2,2.5,0.3,3.8c0.6,1.5,1.3,2.9,2.1,4.3
			c0.1,0.1,0.2,0.3,0.2,0.4c-0.1,0-0.2,0-0.3,0c0-0.2-0.1-0.3-0.2-0.4c-0.7-1.3-1.3-2.5-1.9-3.8c-0.6-1.3-0.7-2.6-0.5-4
			c0.2-0.9,0.4-1.8,0.7-2.7c0.8-2.1,1.8-4,2.9-5.9c0.3-0.5,0.6-1.1,1-1.6c0.3-0.5,0.5-1,0.6-1.6c0.1-0.8-0.2-1.4-0.9-1.7
			c-1.8-0.8-3.7-1.6-5.5-2.4c-0.1,0-0.2-0.1-0.3-0.1c-0.2-0.1-0.1-0.2,0-0.3c0.1,0,0.2,0.1,0.4,0.1c0-0.2-0.1-0.3-0.1-0.4
			c-0.2-0.4-0.3-0.9-0.5-1.3c0-0.1-0.1-0.2,0-0.3c0.2,0,0.2,0.2,0.2,0.3c0.2,0.5,0.4,1.1,0.6,1.6c0.1,0.2,0.2,0.4,0.4,0.5
			c0.8,0.3,1.6,0.7,2.4,1c0.7,0.3,1.3,0.6,2,0.9c0.2,0.1,0.3,0.2,0.5,0.3c0.8,0.4,1.1,1,1,1.9c-0.1,0.6-0.3,1.2-0.6,1.7
			c-0.4,0.7-0.8,1.4-1.3,2.1C90.3,71.9,90.2,72.1,90.1,72.2z"/>
		<path class="st1" d="M77.7,88c0.1-0.1,0-0.3-0.1-0.4c-0.4-1.3-0.8-2.7-1.2-4.1c-0.5-1.7-0.4-3.4,0.1-5c0.3-1,0.7-1.9,1.3-2.7
			c0.1-0.1,0.2-0.2,0.2-0.3c0,0,0,0,0,0c0.1,0,0.1,0,0.1-0.1l0,0c0.1,0,0.1-0.1,0.1-0.1c0.3-0.1,0.4-0.4,0.6-0.6
			c0.7-0.8,1.6-1.5,2.5-2.1c0.3-0.2,0.5-0.4,0.8-0.5c0.1,0,0.1,0,0.1-0.1c0,0,0,0,0,0c0.1,0,0.2-0.1,0.3-0.1c0.1-0.1,0-0.1-0.1-0.1
			c-0.3-0.2-0.6-0.3-0.9-0.5c-0.4-0.3-1-0.5-1.4-0.7c0-0.2,0.1-0.2,0.3-0.1c0.3,0.2,0.7,0.3,1,0.5c0.4,0.2,0.8,0.4,1.1,0.6
			c0.2,0.1,0.4,0.2,0.6,0c0.1,0,0.1,0,0.2,0c0,0,0,0,0,0c-0.2,0.3-0.4,0.4-0.6,0.5c-1.3,0.7-2.5,1.5-3.5,2.6c-1.9,2-2.8,4.4-2.8,7.1
			c0,0.6,0.2,1.2,0.3,1.7c0.4,1.5,0.9,3,1.4,4.5C78,88,77.9,88,77.7,88z"/>
		<path class="st1" d="M14.9,88c-0.1-0.2,0.1-0.3,0.1-0.4c0.3-0.4,0.7-0.8,1-1.2c0.1-0.1,0.2-0.2,0.2-0.3c0.1,0,0.2-0.1,0.2-0.2
			c0.1-0.1,0.1-0.1,0.2-0.1c0.1,0.2,0,0.3-0.1,0.4c-0.4,0.5-0.9,1.1-1.3,1.6c-0.1,0.1-0.2,0.1-0.2,0.3C15.1,88,15,88,14.9,88z"/>
		<path class="st2" d="M28.6,66.5c1.1,0.3,2.1,0.5,3.3,0.6c1.1,0.1,1.8-0.6,2.1-1.4c0.1-0.2,0-0.2-0.2-0.3c-0.6-0.3-1.2-0.5-1.8-0.8
			c-0.8-0.4-1.7-0.7-2.5-1.1c0-0.2-0.2-0.2-0.3-0.3c-0.1-0.1-0.3,0-0.3-0.2c0.8-0.1,1.5-0.1,2.3-0.1c1-0.1,1.6-0.6,1.9-1.5
			c0.1-0.2,0.1-0.4,0.2-0.7c0-0.2,0-0.3-0.2-0.3c-0.4,0-0.8-0.1-1.1-0.1c-1.6-0.1-3.3-0.2-4.9-0.3c-1.2-0.1-2.4-0.2-3.6-0.3
			c-0.2,0-0.4,0-0.5,0.1c-0.6,0.3-1.3,0.6-2,1c0,0,0,0,0,0c0-1.1,0-2.2,0-3.3c0-1.1,0-2.2,0-3.3c0-0.2,0-0.3,0.1-0.5
			c0.2-1.1,0.4-2.2,0.6-3.2c0.2-0.9,0-1.8-0.6-2.5c0,0,0,0,0-0.1c0-0.2,0-0.3,0-0.5c0-6.7,0-13.4,0-20c0-0.2-0.1-0.3,0.1-0.5
			c0.1,0,0.2,0.1,0.4,0.1c7.8,2.6,15.6,5.2,23.4,7.8c1.3,0.4,2.6,0.8,3.8,1.3c0,0.2,0,0.4,0,0.6c0,14,0,28,0,42.1c0,0.2,0,0.3,0,0.5
			c-1.1-0.4-2.2-0.7-3.3-1.1c-5.6-1.9-11.1-3.7-16.7-5.6c-0.1,0-0.2-0.1-0.4-0.1c0,0,0,0,0,0c0-0.1-0.1-0.1-0.2-0.1
			c-1.5-1.2-3.1-2.1-4.9-2.8c-0.1,0-0.1,0-0.2-0.1c0.1-0.1,0.2-0.2,0.4-0.3c0.6-0.4,1.3-0.7,1.9-1.1c0.2-0.1,0.4-0.1,0.6,0
			c0.8,0.5,1.6,1,2.5,1.4c0.5,0.2,1.1,0.4,1.7,0.3c0.7-0.1,1.2-0.4,1.6-1c0.2-0.2,0.2-0.2-0.1-0.4c-1-0.6-2-1.2-2.9-1.8
			c-0.1-0.1-0.2-0.1-0.3-0.2C28.5,66.6,28.6,66.5,28.6,66.5z"/>
		<path class="st3" d="M38.8,27.6c0.8,0.3,1.6,0.5,2.4,0.8c2.2,0.8,4.4,1.6,6.5,2.7c0.4,0.2,0.7,0.4,1.1,0.6
			c0.1,0.2,0.3,0.2,0.5,0.3c1,0.6,2,1.3,2.9,2.3c0.6,0.6,1,1.4,1.2,2.2c-1.5,0-2.9,0-4.4,0c-0.1,0-0.2,0-0.3-0.1
			c-1.3-0.4-2.6-0.8-3.8-1.3c-7.8-2.6-15.6-5.2-23.4-7.8c-0.1,0-0.2-0.1-0.4-0.1c0.6-0.7,1.2-1.3,1.8-2c0.3-0.3,0.5-0.6,0.8-0.9
			c0.2-0.2,0.4-0.3,0.6-0.2c1.2,0.2,2.4,0.5,3.5,0.7c1.9,0.4,3.9,0.9,5.8,1.4c1.6,0.4,3.3,0.9,4.9,1.4
			C38.6,27.5,38.7,27.6,38.8,27.6z"/>
		<path class="st3" d="M58,31.9c1.8-1,3.7-1.8,5.6-2.6c1.3-0.5,2.5-1,3.8-1.4c0.1,0,0.2-0.1,0.3-0.1c0.7-0.2,1.5-0.5,2.2-0.7
			c3-1,6.1-1.8,9.1-2.6c0.9-0.2,1.9-0.5,2.8-0.7c0.3-0.1,0.3-0.1,0.5,0.2c0.7,0.9,1.3,1.9,2,2.8c0.1,0.1,0.2,0.2,0.2,0.3
			c-2,0.7-4,1.3-5.9,2c-7.1,2.4-14.2,4.7-21.2,7.1c-0.1,0-0.2,0.1-0.3,0.1c-0.1,0-0.2,0-0.3,0c-1.2,0-2.3,0-3.5,0
			c0.1-0.7,0.5-1.3,1-1.8C55.4,33.5,56.7,32.7,58,31.9z"/>
		<path class="st1" d="M28.9,63.1c0.1,0.2,0.2,0.1,0.3,0.2c0.1,0.1,0.3,0.1,0.3,0.3c-0.1,0.1-0.3,0-0.4,0c-0.9-0.3-1.7-0.6-2.6-0.9
			c-0.2-0.1-0.4-0.1-0.7,0c-2.2,0.8-4.4,1.5-6.6,2.3c-0.1,0-0.2,0.1-0.3,0.1c-0.1,0-0.1,0-0.2-0.1c0-0.1,0-0.1,0.1-0.2
			c0.1,0,0.2-0.1,0.3-0.1c2.2-0.8,4.5-1.6,6.7-2.4c0.2-0.1,0.5-0.1,0.7,0c0.5,0.2,1.1,0.4,1.7,0.6C28.4,63.1,28.7,63.1,28.9,63.1z"
			/>
		<path class="st1" d="M14.6,64.4c0.4-0.2,0.7-0.4,1.1-0.6c1.1-0.6,2.2-1.2,3.2-1.8c0.2-0.1,0.3-0.2,0.3-0.4
			c0.3-1.2,0.6-2.4,0.9-3.6c0.2,0,0.2,0.1,0.2,0.3c-0.1,0.4-0.2,0.7-0.3,1.1c-0.2,0.7-0.4,1.4-0.5,2.2c0,0.1,0,0.1,0,0
			c0.2,0,0.4-0.2,0.6-0.3c0.2-0.1,0.5-0.3,0.8-0.4c0,0,0,0,0,0c0,0.2-0.1,0.3-0.3,0.3c-1.2,0.7-2.4,1.4-3.7,2
			c-0.8,0.4-1.5,0.9-2.3,1.3c-0.1,0.1-0.2,0.2-0.4,0.1C14.2,64.5,14.5,64.5,14.6,64.4z"/>
		<path class="st1" d="M28.6,66.5c-0.1,0-0.2,0-0.3,0c-0.4-0.3-0.9-0.4-1.3-0.5c-0.3-0.1-0.7-0.2-1-0.4c-0.2-0.1-0.4-0.1-0.6,0
			c-1.5,0.7-2.9,1.4-4.4,2.1c-0.1,0-0.2,0.1-0.2,0.1c-0.1,0-0.1,0-0.1-0.1c0-0.1,0-0.1,0-0.1c0.1,0,0.1-0.1,0.2-0.1
			c1.5-0.7,3-1.5,4.6-2.2c0.2-0.1,0.3-0.1,0.5,0c0.8,0.3,1.6,0.6,2.4,0.9C28.5,66.3,28.7,66.3,28.6,66.5z"/>
		<path class="st4" d="M28.1,72.6c0.1,0,0.1,0,0.2,0.1C28.2,72.7,28.1,72.7,28.1,72.6z"/>
		<path class="st1" d="M75.8,66.3c0-0.1,0.1-0.2,0.2-0.2c0.2-0.1,0.3-0.2,0.5-0.3c0.4-0.1,0.8-0.3,1.2-0.5c0.3-0.1,0.7-0.3,1-0.5
			c0.2-0.1,0.3-0.1,0.5,0c2.4,0.6,4.8,1.2,7.1,1.8c0,0,0.1,0,0.1,0c0.1,0,0.2,0,0.1,0.2c0,0.1-0.1,0.1-0.2,0.1
			c-0.5-0.1-1-0.2-1.5-0.4c-1.9-0.5-3.7-0.9-5.6-1.4c-0.2-0.1-0.4,0-0.6,0.1c-0.9,0.4-1.7,0.8-2.6,1.1C76,66.3,75.9,66.4,75.8,66.3z
			"/>
		<path class="st1" d="M85,69.7c0,0.1-0.1,0.1-0.1,0.1c-0.1,0-0.2-0.1-0.3-0.1c-1.7-0.6-3.3-1.2-5-1.8c-0.3-0.1-0.5-0.1-0.7,0.1
			c-0.3,0.3-0.7,0.5-1,0.8c-0.1,0.1-0.1,0.1-0.2,0.2c0,0-0.1,0-0.1,0c0,0,0-0.1,0-0.1c0,0,0.1-0.1,0.1-0.1c0.4-0.3,0.9-0.6,1.3-1
			c0.2-0.1,0.3-0.2,0.5-0.1c1.8,0.6,3.6,1.3,5.3,1.9C84.9,69.6,85,69.6,85,69.7z"/>
		<path class="st5" d="M77.2,69.1c0,0,0.1-0.1,0.1,0C77.3,69.1,77.3,69.1,77.2,69.1C77.2,69.1,77.2,69.1,77.2,69.1z"/>
		<polygon class="st1" points="83.4,71.5 83.4,71.4 83.4,71.4 		"/>
		<path class="st1" d="M83.4,71.4C83.4,71.5,83.3,71.5,83.4,71.4C83.3,71.5,83.3,71.5,83.4,71.4C83.3,71.5,83.3,71.5,83.4,71.4
			C83.4,71.5,83.4,71.4,83.4,71.4z"/>
		<path class="st6" d="M84.3,60.5c-2-0.9-4-1.8-5.9-2.8c-0.8-0.4-1.2-1-1.2-1.9c0-0.6,0.1-1.1,0.2-1.6c0.1-0.3,0.1-0.3,0.4-0.2
			c1.4,0.6,2.9,1.3,4.3,1.9c0.9,0.4,1.8,0.8,2.6,1.2c0,0,0.1,0,0.1,0c0-0.1,0-0.2,0-0.4c0-9.7,0-19.5,0-29.2c0-0.1,0-0.1,0-0.2
			c0-0.3,0-0.3-0.3-0.2c-2,0.7-4,1.3-5.9,2c-7.1,2.4-14.2,4.7-21.2,7.1c-0.1,0-0.2,0.1-0.3,0.1c0,0,0,0,0,0c-0.1,0-0.2,0-0.3,0
			c-1.2,0-2.3,0-3.5,0c0,0,0,0,0,0c-1.5,0-2.9,0-4.4,0c-0.1,0-0.2,0-0.3-0.1c0,0.2,0,0.4,0,0.6c0,14,0,28,0,42.1c0,0.2,0,0.3,0,0.5
			c0,0.1,0,0.2,0.1,0.2c0.1,0,0.2,0,0.3,0c2.6,0,5.2,0,7.8,0c0.1,0,0.2,0,0.3,0c0.1,0,0.1-0.1,0.1-0.2c0.1,0,0.2-0.1,0.3-0.1
			c7.2-2.4,14.4-4.8,21.5-7.2c0.8-0.3,1.7-0.6,2.5-0.9c-0.4-0.3-1-0.5-1.4-0.7c-0.4,0.3-0.8,0.6-1.1,0.8c-0.7,0.4-1.3,0.9-2.1,1.2
			c-1,0.4-1.9,0.1-2.7-0.6c-0.2-0.2-0.2-0.2,0-0.4c0.6-0.5,1.2-0.9,1.8-1.4c0.4-0.3,0.9-0.6,1.3-1c0,0,0,0,0,0
			c-0.2,0-0.3,0.1-0.4,0.1c-0.9,0.3-1.8,0.6-2.8,0.8c-1,0.2-1.8-0.1-2.3-1c-0.2-0.3-0.2-0.3,0.1-0.5c1.4-0.7,2.7-1.4,4.1-2.2
			c0-0.1,0.1-0.2,0.2-0.2c0.2-0.1,0.3-0.2,0.5-0.3c-0.1,0-0.3,0-0.4,0c-0.8,0.1-1.6,0.1-2.4,0.1c-0.4,0-0.7-0.1-1-0.4
			c-0.5-0.4-0.7-1-0.9-1.6c0-0.1,0-0.2,0.1-0.2c0.1,0,0.1,0,0.2,0c3.1-0.5,6.2-1,9.3-1.5c0.2,0,0.5,0,0.7,0.1c0.9,0.4,1.8,0.7,2.7,1
			c0-0.7,0-1.4,0-2.1C84.8,60.8,84.7,60.6,84.3,60.5z"/>
		<path class="st4" d="M19.5,61.6C19.5,61.7,19.5,61.7,19.5,61.6C19.5,61.6,19.5,61.6,19.5,61.6z"/>
	</g>
</g>
<g id="body">
	<path class="st7" d="M16.8,85.7c-0.1,0-0.2,0-0.2,0.1c-0.1,0.1-0.1,0.2-0.2,0.2c-0.1-0.1-0.2-0.2-0.3-0.3c-2.4-2.5-5-4.8-7.5-7.2
		c-1.2-1.1-2.3-2.1-3.5-3.1c-0.1-0.1-0.3-0.2-0.4-0.3c-0.1-0.2-0.3-0.3-0.4-0.4c-0.3-0.3-0.3-0.2-0.1-0.5c0.8-1.4,1.5-2.9,2.3-4.3
		c0.7-1.4,1.4-2.7,2-4.1c0.6-1.2,1.4-2.2,2.3-3.1c1.4-1.3,3-2.3,4.8-3.1c0.2-0.1,0.4-0.3,0.7-0.3c-0.3,0.9-0.5,1.8-0.8,2.7
		c-0.2,0.8-0.5,1.6-0.7,2.5c-0.1,0.1-0.3,0.1-0.3,0.4c0,0,0,0-0.1,0.1c-0.7,0.4-0.8,1-0.6,1.7c0.1,0.5,0.3,1,0.6,1.5
		c0.8,1.7,1.8,3.3,2.7,4.9c1.1,1.8,2,3.7,3,5.6c0.1,0.2,0.1,0.3,0.1,0.5c-0.1,0.7-0.2,1.3-0.2,2c0,0.2-0.1,0.3-0.2,0.5
		C18.8,83,17.8,84.4,16.8,85.7z"/>
	<path class="st7" d="M28.7,88c0-0.2,0.1-0.3,0.1-0.4c0.2-0.4,0.5-0.8,0.6-1.2c0.8-2.3,1.2-4.6,1-7c-0.1-1.7-0.5-3.3-1.2-4.8
		c-0.3-0.6-0.6-1.2-1-1.7c0,0-0.1-0.1-0.1-0.2c0.1,0,0.3,0,0.4,0.1c5.6,1.9,11.1,3.7,16.7,5.6c1.1,0.4,2.2,0.7,3.3,1.1
		c0,0.1,0,0.2,0.1,0.2c0.1,0,0.2,0,0.3,0c2.6,0,5.2,0,7.8,0c0.1,0,0.2,0,0.3,0c0.1,0,0.1-0.1,0.1-0.2c0.1,0,0.2-0.1,0.3-0.1
		c7.2-2.4,14.4-4.8,21.5-7.2c0.8-0.3,1.7-0.6,2.5-0.9c0.3,0.1,0.6,0.3,0.9,0.5c0,0.1-0.2,0.1-0.2,0.2c0,0-0.1,0-0.1,0.1
		c-0.3,0.2-0.5,0.4-0.8,0.5c-0.9,0.6-1.8,1.3-2.5,2.1c-0.2,0.2-0.3,0.5-0.6,0.6c0,0-0.1,0.1-0.1,0.1c-0.1,0-0.1,0-0.1,0.1
		c-0.1,0-0.2,0.1-0.3,0.1c-1.5,1.2-2.9,2.3-4.3,3.6c-0.6,0.5-1.2,1.1-1.6,1.8l3.4,7H28.7z"/>
	<path class="st2" d="M19.5,61.6c0.1-0.7,0.4-1.5,0.5-2.2c0.1-0.4,0.2-0.8,0.3-1.1c0-0.2,0-0.3-0.2-0.3c0-0.1,0-0.1,0.1-0.2
		c0.2-0.1,0.5-0.1,0.7-0.2c0,1.1,0,2.2,0,3.3c-0.3,0-0.5,0.2-0.8,0.4C20,61.4,19.8,61.6,19.5,61.6C19.5,61.6,19.5,61.6,19.5,61.6z"
		/>
</g>
<g id="hair">
	<path class="st1" d="M38.8,27.6c0.1-0.4,0.3-0.9,0.4-1.4c-4.6-0.3-8.2-2.2-10.7-6c-1.9-2.8-2.5-6-1.9-9.3
		c1.1-6.6,7.1-11.5,14.1-10.9c3.9,0.4,7.1,2.2,9.4,5.4c2.3,3.2,2.9,6.8,2.2,10.6c0.2,0.1,0.4,0,0.6,0c4.6,0,9.3,2.4,12.1,6.1
		c0.7,0.9,1.2,2,1.7,3c0.4,0.9,0.8,1.7,1,2.7c-0.1,0-0.2,0.1-0.3,0.1c-1.3,0.4-2.5,0.9-3.8,1.4c-1.9,0.8-3.8,1.6-5.6,2.6
		c-0.1-0.1,0-0.3,0-0.4c0.1-0.3,0.2-0.7,0.3-1c0.2-0.4,0.3-0.8,0.4-1.2c0.3-1.2,0-2.2-0.9-3c-0.5-0.5-1.2-0.7-1.9-0.9
		c-0.9-0.2-1.8-0.2-2.8-0.1c-1.3,0.2-2.5,0.5-3.6,1.1c-0.3,0.2-0.3,0.2-0.6-0.1c-0.7-0.7-1.5-1.3-2.2-2c-0.1-0.1-0.2-0.1-0.2-0.2
		c-0.1,0-0.1,0-0.2,0.1c-0.1,0.1,0,0.1,0,0.2c0.1,0.1,0.1,0.1,0.2,0.2c0.8,0.7,1.6,1.3,2.3,2c0.1,0.1,0.2,0.3,0.2,0.5
		c0,0.3,0,0.6,0.1,0.9c0,1.2-0.1,2.4-0.5,3.6c-0.4-0.1-0.8-0.4-1.1-0.6c-2.1-1.1-4.3-1.9-6.5-2.7C40.3,28.1,39.5,27.8,38.8,27.6z"/>
</g>
</svg>
