<?xml version="1.0" encoding="utf-8"?>
<!-- Generator: Adobe Illustrator 26.0.1, SVG Export Plug-In . SVG Version: 6.00 Build 0)  -->
<svg version="1.1" id="Layer_1" xmlns="http://www.w3.org/2000/svg" xmlns:xlink="http://www.w3.org/1999/xlink" x="0px" y="0px"
	 viewBox="0 0 72 72" style="enable-background:new 0 0 72 72;" xml:space="preserve">
<style type="text/css">
	.st0{fill:#F5F5F5;}
</style>
<path class="st0" d="M60,6.8H12c-4.4,0-8,3.6-8,8v32c0,4.4,3.6,8,8,8h32l6.3,9.5c0.8,1.2,2.5,1.2,3.3,0l6.3-9.5c4.4,0,8-3.6,8-8v-32
	C68,10.4,64.4,6.8,60,6.8z M20.6,34.1c-2.2,0-4-1.8-4-4c0-2.2,1.8-4,4-4c2.2,0,4,1.8,4,4C24.6,32.3,22.8,34.1,20.6,34.1z M36.1,34.1
	c-2.2,0-4-1.8-4-4c0-2.2,1.8-4,4-4c2.2,0,4,1.8,4,4C40.1,32.3,38.3,34.1,36.1,34.1z M51.6,34.1c-2.2,0-4-1.8-4-4c0-2.2,1.8-4,4-4
	c2.2,0,4,1.8,4,4C55.6,32.3,53.8,34.1,51.6,34.1z"/>
</svg>
