<svg id="圖層_1" data-name="圖層 1" xmlns="http://www.w3.org/2000/svg" viewBox="0 0 566.93 136.06"><defs><style>.cls-1{fill:#f5f5f5;}</style></defs><path class="cls-1" d="M80.81,68.05c-.3,10.16-4,19.68-13.21,26.56-17.53,13.16-45.82,5.07-50-20.33-1.94-11.72,1.09-22.12,9.79-30.42,15.44-14.72,40.5-10,50,9.29A30.44,30.44,0,0,1,80.81,68.05Z"/><path class="cls-1" d="M104.73,67l1.31.57A13.86,13.86,0,0,1,114.78,80C115.56,91,108,99.27,97,99.62c-1.4,0-3.07.56-4.12-.15S92,97,91.58,95.71C89,86.55,86.49,77.37,83.93,68.2a4.54,4.54,0,0,1-.11-2.07q2.64-14.43,5.25-28.84c.15-.83.43-1.14,1.34-1.14a40.75,40.75,0,0,1,10.33,1A16.51,16.51,0,0,1,112.13,59.4a13.57,13.57,0,0,1-5.94,6.74Z"/><path class="cls-1" d="M295,54.84V77.15c0,.86.05,1.72.07,2.58.2,8.46.2,8.46,8.69,11.77H283.82c.09-.31.1-.67.21-.71,6.74-2.09,6.75-2.08,6.9-9.36q.3-13.68.58-27.34c.14-6.36-.69-7.4-6.91-8.65-.44-.09-.86-.3-1.28-1.37,2.91,0,5.88.33,8.73-.08,3.73-.54,5.31,1.63,7.3,4.12,8.51,10.7,17.24,21.22,25.87,31.82.38.47.62,1,1.35,1.36.37-10.86.73-21.48-.1-32.1a3.2,3.2,0,0,0-2.77-3,15.13,15.13,0,0,1-5.07-1.89H337c0,.22,0,.64-.08.64-5.18.75-6.09,4.22-6.06,8.76.06,11.45-.11,22.9-.28,34.35,0,1.31,1,3.39-.89,3.81s-4.14.75-5.89-1.6C317.65,82.07,311.27,74.08,305,66c-3-3.83-6.08-7.6-9.13-11.4Z"/><path class="cls-1" d="M351,44c8.34.51,16.74-.56,25.1.52,4.76.61,8.38,3.1,9.29,8.16s-1.2,8.85-5.47,11.54l-1.29.84c.71,1,1.86,1,2.8,1.37,8.08,3.41,10.15,12.89,4.21,19.45a18.3,18.3,0,0,1-13.09,6c-7.37.34-14.77.09-22.15.07-.29,0-.57-.31-1-.57.36-.33.56-.68.82-.74,6.73-1.42,6.81-1.41,6.87-8.16.09-10.21,0-20.43.13-30.64.05-3.83-.73-6.6-5.32-6.46C351.45,45.4,350.89,45.24,351,44Zm16.52,22.83c-3.3-.9-4,1-3.75,4.42.33,4.27.2,8.58.23,12.88A4.47,4.47,0,0,0,365.69,88c5,3.6,13.86.46,15.51-5.47C383.67,73.61,378.16,67,367.52,66.83ZM364,56c-.2,9.7-.21,9.67,8.19,8.81A6.57,6.57,0,0,0,378.13,60c2.38-6.84-1.66-12.6-9.08-13-5-.28-5-.28-5.06,4.54C364,53,364,54.48,364,56Z"/><path class="cls-1" d="M545.07,44.12c-9.3,4.19-14.9,12.39-21.8,19.08-1.13,1.09-.63,1.88.07,2.83,5.07,6.84,10.24,13.59,16.34,19.54,2.74,2.67,5.76,5,10.24,5-4.5,2.87-14.24,1.43-17.74-2.67-4.7-5.53-9.08-11.34-13.6-17-.61-.77-1.19-1.57-1.82-2.33s-1.2-2-2.18-1.72c-1.45.36-.77,1.86-.78,2.83,0,4.81.17,9.61.08,14.41C513.81,87.74,515,90,519,90.17c.62,0,1.55-.09,1.84,1.28H500c.52-.57.69-.93.95-1,6-1.89,6.07-1.88,6.12-8.12.06-9.73,0-19.46,0-29.19,0-6.65-.08-6.65-6-9.17h18.64c-.08.37-.06.75-.17.79-5.49,1.94-5.54,1.93-5.66,8-.08,4.17,0,8.34,0,12.76,3.24-.89,5.35-3,7.55-4.84a89.44,89.44,0,0,0,10-9.89c.93-1.1,2.28-2.26,1.64-3.83-.56-1.4-2.23-1.28-3.53-1.56-.86-.19-2,.33-2.58-1.25Z"/><path class="cls-1" d="M418.48,93.18c-15-.23-24.21-10.7-24-27.2.19-12.7,12-23.3,25.81-23.09,14.58.22,23.73,9.44,23.43,23.62C443.44,82.63,433.23,93.4,418.48,93.18Zm17.79-24.1c0-7.78-1.62-14.95-7.92-20.26-9.18-7.75-21.65-4.07-25,7.42-1.76,6.07-1.33,12.22.17,18.26,1.14,4.57,3,8.86,6.51,12.23,8.21,8,20.62,5.07,24.39-5.66A40.38,40.38,0,0,0,436.27,69.08Z"/><path class="cls-1" d="M196.48,66.91c-.34,15.94-10.54,26.54-25.26,26.26-15.08-.29-24.13-10.67-23.8-27.29.25-12.81,12.12-23.33,25.92-23C187.82,43.27,196.79,52.57,196.48,66.91ZM189,70.29c.15-8-1.24-15-6.81-20.51-7.46-7.35-18.59-6.45-23.88,1.83-6.16,9.65-3.41,28.45,5.24,35.84,8.35,7.14,20,4.17,23.66-6.1A31.09,31.09,0,0,0,189,70.29Z"/><path class="cls-1" d="M472.63,93.15c-14.81-.17-23.95-10.5-23.8-26.9.11-13,11.9-23.58,25.91-23.34,14.57.25,23.44,9.31,23.25,23.75C497.79,82.69,487.61,93.33,472.63,93.15ZM456.54,64.6C456.7,72,458.1,79,462.74,85c3.87,5,9.13,6.86,15.34,6s9.14-5.3,10.88-10.72a32.18,32.18,0,0,0,1.41-7.21c.73-9.25-.24-18.06-8.07-24.46-9.39-7.66-21.94-3.44-24.9,8.29A25.79,25.79,0,0,0,456.54,64.6Z"/><path class="cls-1" d="M271.11,73.12c-1.24-6.32-6-4.65-9.75-4.77-6.89-.21-6.89-.1-6.87,6.61,0,2.83.2,5.67,0,8.49-.22,3.58,1.08,5.33,4.86,5.06a34.19,34.19,0,0,1,7,.12c5.39.77,8.66-1.68,10.74-6.37.32-.7.43-1.74,2.18-2a31.81,31.81,0,0,1-3.17,10.66A2.33,2.33,0,0,1,273.94,92H238.47c2.12-2,4.07-1.47,5.66-1.86,2.14-.51,3.24-1.58,3.29-3.75.33-12.06.29-24.13.05-36.19-.06-3.2-2.4-3.24-4.49-3.79-.78-.21-1.92,0-1.9-1.23,0-1.56,1.32-1.14,2.21-1.14,10,0,20,.06,29.93,0,1.76,0,2.48.35,2.14,2.24-.52,2.94-.86,5.9-1.32,9.09-.64-.46-1-.55-1-.74-2.47-7.11-2.46-7.11-10.06-7.11-8.42,0-8.42,0-8.48,8.21-.06,9.1-.06,9.09,8.91,9,3.12,0,6.36.28,7.2-3.93a.92.92,0,0,1,1.11-.72c.59.11.66.62.66,1.13V72.52Z"/><path class="cls-1" d="M214.51,66.67c3.77-.13,6.55-.44,9-2.1A10.29,10.29,0,0,0,228,52.65c-.94-3.56-3.81-5.38-9-5.66-6.66-.37-6.73-.37-6.78,6.26-.08,10-.12,20,0,29.93,0,6.15.16,6.14,6.1,7.37.45.09.89.26,1.5.44-2,1.14-17.85,1.36-21,.4,6.3-2.93,6.35-2.93,6.42-10.58.09-9.61,0-19.22.16-28.82.09-4-1-6.45-5.41-6.47-.48,0-1-.15-1-.86.2-.78.92-.56,1.47-.56,6.9,0,13.8,0,20.7,0A15.86,15.86,0,0,1,232,48c4.16,3.75,4.78,8.58,1.67,13.24C229.8,67,220.58,70,214.51,66.67Z"/></svg>